<?xml version="1.0" encoding="utf-8"?>
<!-- Generator: Adobe Illustrator 28.1.0, SVG Export Plug-In . SVG Version: 6.00 Build 0)  -->
<svg version="1.1" id="Layer_1" xmlns="http://www.w3.org/2000/svg"
	xmlns:xlink="http://www.w3.org/1999/xlink" x="0px" y="0px"
	viewBox="0 0 510.3 186" style="enable-background:new 0 0 510.3 186;" xml:space="preserve">
<style type="text/css">
	.st0{fill:none;}
	.st1{fill:#FFFFFF;}
	.st2{fill:#ED1C24;}
	.st3{fill:#FFFFFF;stroke:#FFFFFF;stroke-width:2.0862;stroke-linejoin:round;stroke-miterlimit:10;}
</style>
<g>
	<path class="st0" d="M47.1,57.7c4.7,5.1,9.4,10.1,14.1,15.2c0.7,0.8,1.5,1.4,2.7,1.3c1.6-0.1,2.8-1.6,2.5-3.2
		c-0.6-3.5-1.3-6.9-2-10.4c-1-5.4-2.1-10.7-3.1-16.1c-1.1,1.2-2.2,2.6-3.3,4C55.2,52.2,52.2,56.2,47.1,57.7z"/>
	<g>
		<path class="st0" d="M49.2,78c-0.7-0.9-1.5-1.7-2.3-2.5C47.7,76.2,48.5,77.1,49.2,78z"/>
		<path class="st0" d="M53.6,83.6c1,1.1,2,2.2,3.1,3C55.6,85.7,54.6,84.7,53.6,83.6z"/>
		<path class="st0" d="M46.9,75.4c-0.6-0.5-1.1-1-1.7-1.5C45.8,74.4,46.4,74.9,46.9,75.4z"/>
		<path class="st0" d="M58.2,87.4c1.3,0.6,2.7,1,4.3,1c1.7,0,3.1-0.3,4.3-1c-1.3,0.6-2.7,1-4.3,1C60.8,88.3,59.4,88,58.2,87.4z"/>
		<path class="st0" d="M79.8,73.9c2.5-1.9,5.5-3.2,9.5-3.2c3.8,0,6.7,1.2,9.1,2.9c-2.4-1.7-5.3-2.9-9.1-2.9
			C85.3,70.7,82.3,72,79.8,73.9z"/>
		<path class="st0" d="M111.9,87.4c1.3,0.6,2.7,1,4.3,1c3,0,5.2-1.1,7.1-2.9c-1.9,1.7-4.1,2.9-7.1,2.9
			C114.6,88.3,113.1,88,111.9,87.4z"/>
		<path class="st0" d="M68.3,86.5c1.1-0.8,2.1-1.8,3.1-3C70.4,84.7,69.4,85.7,68.3,86.5z"/>
		<path class="st0" d="M72.5,82.1c-0.4,0.5-0.8,1-1.2,1.4C71.8,83.1,72.2,82.6,72.5,82.1z"/>
		<path class="st0" d="M78.1,75.4c-0.8,0.8-1.6,1.7-2.3,2.5C76.5,77.1,77.3,76.2,78.1,75.4z"/>
		<path class="st0" d="M79.8,73.9c-0.6,0.5-1.2,1-1.7,1.5C78.6,74.9,79.2,74.4,79.8,73.9z"/>
		<path class="st0" d="M68.3,86.5c-0.5,0.3-0.9,0.6-1.4,0.8C67.3,87.1,67.8,86.8,68.3,86.5z"/>
		<path class="st0" d="M53.6,83.6c-0.4-0.5-0.8-0.9-1.2-1.4C52.8,82.6,53.2,83.1,53.6,83.6z"/>
		<path class="st0" d="M58.2,87.4c-0.5-0.2-1-0.5-1.4-0.8C57.2,86.8,57.7,87.1,58.2,87.4z"/>
		<path class="st0" d="M157.4,78.8c-0.5-0.6-0.9-1.2-1.4-1.7C156.4,77.7,156.9,78.3,157.4,78.8z"/>
		<path class="st0" d="M126.3,82.1c-0.6,0.7-1.2,1.4-1.8,2.1C125.1,83.6,125.7,82.9,126.3,82.1z"/>
		<path class="st0" d="M153.5,74.6c-0.9-0.8-1.8-1.5-2.9-2C151.7,73.2,152.6,73.9,153.5,74.6z"/>
		<path class="st0" d="M155.9,77.1c-0.5-0.6-1-1.1-1.6-1.7C154.9,76,155.4,76.5,155.9,77.1z"/>
		<path class="st0" d="M100.6,75.4c-0.4-0.4-0.9-0.8-1.3-1.2C99.8,74.6,100.2,75,100.6,75.4z"/>
		<path class="st0" d="M45.2,73.9c-2.5-1.9-5.5-3.2-9.5-3.2c-4,0-7.1,1.3-9.5,3.2c2.5-1.9,5.5-3.2,9.5-3.2S42.7,72,45.2,73.9z"/>
		<path class="st0" d="M111.9,87.4c-0.5-0.2-1-0.5-1.4-0.8C110.9,86.8,111.4,87.1,111.9,87.4z"/>
		<path class="st0" d="M110.5,86.5c-0.7-0.5-1.3-1-1.9-1.7C109.1,85.5,109.8,86,110.5,86.5z"/>
		<path class="st0" d="M102.9,78c-0.7-0.9-1.5-1.7-2.3-2.5C101.5,76.2,102.2,77.1,102.9,78z"/>
		<path class="st0" d="M107.3,83.6c-0.4-0.5-0.8-0.9-1.2-1.4C106.6,82.6,106.9,83.1,107.3,83.6z"/>
		<path class="st0" d="M131,76.2c2.9-3.1,6.5-5.6,12.1-5.6c3,0,5.5,0.7,7.6,1.9c-2.1-1.2-4.5-1.9-7.6-1.9
			C137.5,70.7,133.9,73.2,131,76.2z"/>
		<path class="st0" d="M159.6,89.1c-2-0.9-2.5-2.1-1.8-4.2c0.4-1.3,0.8-2.6,1.3-3.9c-0.1-0.2-0.2-0.3-0.4-0.5
			c-0.4-0.6-0.9-1.2-1.4-1.8c-0.5-0.6-0.9-1.2-1.4-1.7c-0.5-0.6-1-1.1-1.6-1.7c-0.3-0.3-0.6-0.5-0.8-0.8c-0.9-0.8-1.8-1.5-2.9-2
			c-2.1-1.2-4.5-1.9-7.6-1.9c-5.6,0-9.2,2.5-12.1,5.6c-1.3,1.4-2.5,2.9-3.6,4.4c-0.4,0.5-0.8,1-1.2,1.5c-0.6,0.7-1.2,1.4-1.8,2.1
			c-0.4,0.4-0.8,0.8-1.2,1.2c-1.9,1.7-4.1,2.9-7.1,2.9c-1.7,0-3.1-0.3-4.3-1c-0.5-0.2-1-0.5-1.4-0.8c-0.7-0.5-1.3-1-1.9-1.7
			c-0.4-0.4-0.8-0.8-1.2-1.3c-0.4-0.5-0.8-0.9-1.2-1.4c-0.4-0.5-0.8-1-1.2-1.5c-0.7-0.9-1.3-1.8-2.1-2.6s-1.5-1.7-2.3-2.5
			c-0.4-0.4-0.9-0.8-1.3-1.2c-0.3-0.2-0.5-0.4-0.8-0.6c-2.4-1.7-5.3-2.9-9.1-2.9c-4,0-7.1,1.3-9.5,3.2c-0.6,0.5-1.2,1-1.7,1.5
			c-0.8,0.8-1.6,1.7-2.3,2.5s-1.4,1.8-2.1,2.6c-0.4,0.5-0.8,1-1.2,1.5c-0.4,0.5-0.8,1-1.2,1.4c-1,1.1-2,2.2-3.1,3
			c-0.5,0.3-0.9,0.6-1.4,0.8c-1.3,0.6-2.7,1-4.3,1c-1.7,0-3.1-0.3-4.3-1c-0.5-0.2-1-0.5-1.4-0.8c-1.1-0.8-2.1-1.8-3.1-3
			c-0.4-0.5-0.8-0.9-1.2-1.4c-0.4-0.5-0.8-1-1.2-1.5c-0.7-0.9-1.3-1.8-2.1-2.6s-1.5-1.7-2.3-2.5c-0.6-0.5-1.1-1-1.7-1.5
			c-2.5-1.9-5.5-3.2-9.5-3.2s-7.1,1.3-9.5,3.2c-2.5,1.9-4.3,4.4-6.1,6.7c-0.1,0.1-0.2,0.2-0.3,0.4c0.4,1.4,0.9,2.7,1.3,4.1
			c0.6,2,0.1,3.2-1.7,4.1c-2.5,1.2-5.1,2.4-7.6,3.5c-0.3,0.1-0.5,0.3-0.8,0.4c0.3,0.2,0.4,0.4,0.6,0.5c0,0,0,0,0,0
			c6.3-1.1,9.7-5.6,12.9-9.7c3.2-4.1,5.9-7.7,11.2-7.7c5.3,0,8.1,3.6,11.2,7.7c3.5,4.6,7.5,9.9,15.6,9.9c8.1,0,12.1-5.3,15.6-9.9
			c3.2-4.1,5.9-7.7,11.2-7.7c5.3,0,8.1,3.6,11.2,7.7c3.5,4.6,7.6,9.9,15.6,9.9c8.1,0,12.1-5.3,15.6-9.9c3.2-4.1,5.9-7.7,11.2-7.7
			s8.1,3.6,11.2,7.7c3.1,4.1,6.6,8.7,13,9.7c0.2-0.2,0.4-0.4,0.7-0.6C165.1,91.7,162.4,90.4,159.6,89.1z"/>
		<path class="st0" d="M69.2,40.8c1,0,1.9,0.1,2.7,0.4C71.1,40.9,70.2,40.8,69.2,40.8L69.2,40.8z"/>
		<path class="st0" d="M63.8,42.4c1.5-1,3.3-1.6,5.4-1.6c0,0,0,0,0,0h0c1,0,1.9,0.1,2.7,0.4c0.3,0.1,0.5,0.2,0.8,0.3
			c3.2,1.2,5.3,4,7.7,7.1c0.2,0.3,0.4,0.6,0.7,0.9c0.7,0.9,1.4,1.8,2.1,2.6c0.6,0.6,1.2,1.3,1.8,1.9c0.4,0.4,0.9,0.8,1.3,1.1
			c0.2,0.2,0.5,0.4,0.7,0.5c1.2,0.9,2.5,1.6,4,2.1c1.5,0.5,3.2,0.8,5.1,0.8c0,0,0,0,0,0c3,0,5.5-0.7,7.6-1.9c0.7-0.4,1.3-0.8,2-1.3
			c0.3-0.2,0.6-0.5,0.9-0.7c0.6-0.5,1.1-1,1.7-1.6c1.3-1.4,2.5-2.9,3.6-4.4c0.5-0.7,1-1.3,1.5-2c0.8-0.9,1.5-1.8,2.3-2.6
			c0.8-0.8,1.7-1.4,2.6-2v0l0,0c0.4-2.1,0.8-4.3,1.2-6.4c-5.8,1.3-9.1,5.6-12.1,9.5c-3.2,4.1-5.9,7.7-11.2,7.7c0,0,0,0,0,0
			c-5.3,0-8.1-3.6-11.2-7.7c-3.5-4.6-7.6-9.9-15.6-9.9c0,0,0,0,0,0c-3.9,0-6.8,1.2-9.2,3c0.4,2.1,0.8,4.2,1.2,6.3
			c0.3-0.3,0.5-0.5,0.8-0.8C62.6,43.2,63.2,42.8,63.8,42.4z"/>
		<path class="st1" d="M45.2,73.9c0.6,0.5,1.2,1,1.7,1.5c0.8,0.8,1.6,1.7,2.3,2.5s1.4,1.8,2.1,2.6c0.4,0.5,0.8,1,1.2,1.5
			c0.4,0.5,0.8,1,1.2,1.4c1,1.1,2,2.2,3.1,3c0.5,0.3,0.9,0.6,1.4,0.8c1.3,0.6,2.7,1,4.3,1c1.7,0,3.1-0.3,4.3-1
			c0.5-0.2,1-0.5,1.4-0.8c1.1-0.8,2.1-1.8,3.1-3c0.4-0.5,0.8-0.9,1.2-1.4c0.4-0.5,0.8-1,1.2-1.5c0.7-0.9,1.3-1.8,2.1-2.6
			s1.5-1.7,2.3-2.5c0.6-0.5,1.1-1,1.7-1.5c2.5-1.9,5.5-3.2,9.5-3.2c3.8,0,6.7,1.2,9.1,2.9c0.3,0.2,0.5,0.4,0.8,0.6
			c0.5,0.4,0.9,0.8,1.3,1.2c0.8,0.8,1.6,1.7,2.3,2.5s1.4,1.8,2.1,2.6c0.4,0.5,0.8,1,1.2,1.5c0.4,0.5,0.8,1,1.2,1.4
			c0.4,0.5,0.8,0.9,1.2,1.3c0.6,0.6,1.2,1.2,1.9,1.7c0.5,0.3,0.9,0.6,1.4,0.8c1.3,0.6,2.7,1,4.3,1c3,0,5.2-1.1,7.1-2.9
			c0.4-0.4,0.8-0.8,1.2-1.2c0.6-0.7,1.2-1.4,1.8-2.1c0.4-0.5,0.8-1,1.2-1.5c1.1-1.5,2.3-3,3.6-4.4c2.9-3.1,6.5-5.6,12.1-5.6
			c3,0,5.5,0.7,7.6,1.9c1,0.6,2,1.3,2.9,2c0.3,0.3,0.6,0.5,0.8,0.8c0.6,0.5,1.1,1.1,1.6,1.7c0.5,0.6,1,1.2,1.4,1.7
			c0.5,0.6,0.9,1.2,1.4,1.8c0.1,0.2,0.2,0.3,0.4,0.5c1.1-3.4,2.2-6.8,3.3-10.2c1-3.1,2-6.3,3.1-9.5c-0.3,0-0.6,0.1-0.8,0.1
			c-7.2,1.5-14.4,3.1-21.5,4.6c-2,0.4-3-0.1-3.8-2c-1.2-2.8-2.3-5.5-3.5-8.3c-0.2-0.5-0.5-1-0.7-1.7c-0.3,0.3-0.6,0.6-0.8,0.9
			c-5.5,5.9-11.1,11.9-16.6,17.8c-0.5,0.5-1.2,1-1.8,1.2c-1.7,0.5-3.8-1-3.3-3.7c1.9-9.5,3.7-19,5.6-28.5c-0.9,0.5-1.8,1.2-2.6,2
			c-0.8,0.8-1.6,1.7-2.3,2.6c-0.5,0.6-1,1.3-1.5,2c-1.1,1.5-2.3,3-3.6,4.4c-0.5,0.6-1.1,1.1-1.7,1.6c-0.3,0.3-0.6,0.5-0.9,0.7
			c-0.6,0.5-1.3,0.9-2,1.3c-2.1,1.2-4.5,1.9-7.6,1.9c0,0,0,0,0,0c-1.9,0-3.6-0.3-5.1-0.8s-2.8-1.2-4-2.1c-0.2-0.2-0.5-0.3-0.7-0.5
			c-0.5-0.4-0.9-0.7-1.3-1.1c-0.6-0.6-1.2-1.2-1.8-1.9c-0.8-0.9-1.5-1.7-2.1-2.6c-0.2-0.3-0.4-0.6-0.7-0.9c-2.4-3.1-4.5-5.9-7.7-7.1
			c-0.3-0.1-0.5-0.2-0.8-0.3c-0.8-0.2-1.7-0.4-2.7-0.4c0,0,0,0,0,0c-2.2,0-3.9,0.6-5.4,1.6c-0.6,0.4-1.2,0.9-1.7,1.4
			c-0.3,0.3-0.5,0.5-0.8,0.8c1,5.4,2.1,10.7,3.1,16.1c0.7,3.5,1.4,6.9,2,10.4c0.3,1.6-0.9,3.1-2.5,3.2c-1.1,0.1-1.9-0.5-2.7-1.3
			c-4.7-5.1-9.4-10.1-14.1-15.2c-0.9-1-1.8-1.9-2.7-2.9c-0.2-0.2-0.3-0.5-0.4-0.8c-0.4,0.5-0.5,0.7-0.6,0.9c-0.5,1.2-1,2.3-1.5,3.5
			c-0.8,1.9-1.6,3.8-2.4,5.7c-0.8,1.8-1.8,2.4-3.8,2c-5.8-1.2-11.6-2.5-17.5-3.7c-1.6-0.3-3.2-0.7-4.9-1c0.1,0.4,0.2,0.6,0.3,0.9
			c2,6.2,4,12.4,6.1,18.7c0.1-0.1,0.2-0.2,0.3-0.4c1.8-2.3,3.7-4.8,6.1-6.7c2.5-1.9,5.5-3.2,9.5-3.2C39.7,70.7,42.7,72,45.2,73.9z"
			/>
		<path class="st2" d="M99.3,74.2c-0.3-0.2-0.5-0.4-0.8-0.6C98.8,73.8,99,74,99.3,74.2z"/>
		<path class="st2" d="M108.5,84.9c-0.4-0.4-0.8-0.8-1.2-1.3C107.7,84,108.1,84.4,108.5,84.9z"/>
	</g>
	<path class="st0" d="M120.6,119.5c1.2,1.6,2.5,3.3,4,4.8c-0.1-0.1-0.1-0.1-0.2-0.2C123,122.4,121.7,121,120.6,119.5z"/>
	<path class="st1" d="M131.9,140.8c-1.4-4-2.9-8-4.3-11.9c-0.4-1.2-0.9-2-1.3-2.6c-0.4-0.5-0.8-0.9-1.1-1.4
		c-0.2-0.2-0.4-0.4-0.6-0.7c-1.5-1.5-2.8-3.2-4-4.8c-3.2-4.1-5.9-7.7-11.2-7.7c-5.3,0-8.1,3.6-11.2,7.7c-3.5,4.6-7.6,9.9-15.6,9.9
		c-8.1,0-12.1-5.3-15.6-9.9c-3.2-4.1-5.9-7.7-11.2-7.7c-5.3,0-8.1,3.6-11.2,7.7c-0.1,0.2-0.3,0.3-0.4,0.5c2,1.6,4.1,3.3,6.1,4.9
		c1.5,1.2,1.8,2.2,1.1,4c-1.4,4-2.9,8-4.3,11.9c-0.1,0.3-0.2,0.6-0.3,0.9c0.1,0,0.2,0.1,0.2,0.1c7-1.2,14.1-2.5,21.1-3.7
		c5-0.9,10-1.8,15-2.6c2.5-0.4,4.7,1.6,4.6,4.2c-0.1,2.2-0.2,4.4-0.3,6.6c-0.4,7-0.7,14.1-1.1,21.1c-0.2,2.9-0.3,5.9-0.5,8.8
		c2.6,0,5.1,0,7.7,0c0-0.2-0.1-0.3-0.1-0.5c-0.3-5.3-0.6-10.7-0.8-16c-0.4-6.6-0.7-13.3-1.1-19.9c-0.1-2.6,2.1-4.6,4.6-4.2
		c1.1,0.2,2.1,0.4,3.2,0.5c8.4,1.5,16.8,3,25.2,4.4c2.6,0.5,5.2,0.9,8,1.4C132.1,141.4,132,141.1,131.9,140.8z"/>
	<path class="st0" d="M125,116.1c-3.5-4.6-7.6-9.9-15.6-9.9c-8.1,0-12.1,5.3-15.6,9.9c-3.2,4.1-5.9,7.7-11.2,7.7
		c-5.3,0-8.1-3.6-11.2-7.7c-3.5-4.6-7.5-9.9-15.6-9.9c-8.1,0-12.1,5.3-15.6,9.9c-0.1,0.1-0.2,0.2-0.3,0.4c1.4,1.2,2.9,2.3,4.3,3.5
		c0.1-0.2,0.3-0.3,0.4-0.5c3.2-4.1,5.9-7.7,11.2-7.7c5.3,0,8.1,3.6,11.2,7.7c3.5,4.6,7.5,9.9,15.6,9.9c8.1,0,12.1-5.3,15.6-9.9
		c3.2-4.1,5.9-7.7,11.2-7.7c5.3,0,8.1,3.6,11.2,7.7c1.2,1.5,2.4,3,3.8,4.6c0.1,0.1,0.1,0.1,0.2,0.2c0.2,0.2,0.4,0.5,0.6,0.7
		c0.4,0.4,0.7,0.9,1.1,1.4c0.5,0.7,0.9,1.4,1.3,2.6c0.9,2.5,0.7-0.1,0.7-0.1l-0.6-2.4c0.2-0.5,0.6-1.1,1-1.4
		c0.9-0.8,1.9-1.5,2.8-2.3C129,121.3,127.1,118.8,125,116.1z"/>
	<g>
		<path class="st1" d="M71.7,90.9c-2.4,1.8-5.3,3-9.2,3c-0.9,0-1.7-0.1-2.4-0.2v13.1c5.3,1.5,8.4,5.6,11.2,9.3
			c0.1,0.2,0.3,0.4,0.4,0.5V90.9z"/>
		<path class="st1" d="M40.5,77.5c-1.4-0.8-2.9-1.2-4.8-1.2c-2.9,0-5,1-6.8,2.6v28.8c3.6,2.9,7.3,5.9,10.9,8.8
			c0.1-0.1,0.2-0.2,0.3-0.4c0.2-0.2,0.3-0.4,0.5-0.6V77.5z"/>
		<path class="st1" d="M138.3,117.1c3.9-3.1,7.7-6.2,11.6-9.4V78.9c-1.8-1.6-3.9-2.6-6.8-2.6c-1.9,0-3.4,0.4-4.8,1.2V117.1z"/>
		<path class="st1" d="M24.8,83.4c-0.1,0.2-0.3,0.4-0.4,0.5c-3.1,4.1-6.6,8.6-12.9,9.7c4.4,3.6,8.8,7.2,13.3,10.7V83.4z"/>
		<path class="st1" d="M56.1,92.5c-4.1-1.9-6.8-5.4-9.2-8.6c-0.8-1.1-1.6-2.1-2.4-3v29.8c2.7-2.6,6.2-4.6,11.2-4.6
			c0.1,0,0.3,0,0.4,0V92.5z"/>
		<path class="st1" d="M154.3,84c-0.1-0.2-0.3-0.4-0.4-0.6v21.1c4.5-3.6,8.9-7.2,13.4-10.9c0,0,0,0,0,0
			C160.9,92.7,157.4,88.1,154.3,84z"/>
		<path class="st1" d="M134.3,80.9c-0.8,1-1.6,2-2.4,3.1c-2.4,3.2-5.1,6.7-9.2,8.6v20.6c0.8,1,1.6,2,2.3,3c2.1,2.7,4,5.2,6.5,6.6
			c0.9-0.8,1.9-1.5,2.8-2.3V80.9z"/>
		<path class="st1" d="M87.4,76.4c-4.1,0.8-6.6,3.9-9.3,7.5c-0.8,1-1.6,2.1-2.4,3.1v34.1c1.8,1.6,3.9,2.6,6.8,2.6
			c1.9,0,3.5-0.5,4.9-1.3V76.4z"/>
		<path class="st1" d="M118.7,93.7c-0.8,0.1-1.6,0.2-2.4,0.2c-3.8,0-6.7-1.2-9.1-2.9v15.4c0.7-0.1,1.5-0.2,2.3-0.2
			c3.9,0,6.9,1.2,9.3,3V93.7z"/>
		<path class="st1" d="M103.1,87.1c-0.9-1-1.7-2.1-2.5-3.2c-2.7-3.6-5.1-6.7-9.1-7.5V119c0.8-0.9,1.5-1.9,2.3-2.9
			c2.5-3.2,5.2-6.8,9.4-8.6V87.1z"/>
	</g>
	<g>
		<path class="st1" d="M118.7,27.9c-3.6,2.1-7.2,4.1-10.8,6.2c-0.3,0.2-0.6,0.3-0.8,0.4v10.8c0.1-0.1,0.1-0.2,0.2-0.2
			c2.9-3.8,6-7.9,11.4-9.4V27.9z"/>
		<path class="st1" d="M87.4,9.7c-3.9,7.7-7.8,15.4-11.7,23v3.9c4,1.9,6.7,5.3,9.1,8.5c0.9,1.2,1.7,2.3,2.6,3.3V9.7z"/>
		<path class="st1" d="M71.7,34.5c-0.2-0.1-0.4-0.2-0.6-0.3c-3.7-2.1-7.4-4.3-11-6.4v10.4c2.4-1.7,5.3-2.9,9.1-2.9c0,0,0,0,0,0
			c0.9,0,1.7,0.1,2.5,0.2V34.5z"/>
		<path class="st1" d="M103.1,32.6C99.2,25,95.3,17.4,91.4,9.7v42c1.3,0.7,2.8,1.1,4.6,1.1c0,0,0,0,0,0c3,0,5.1-1.1,7-2.8V32.6z"/>
	</g>
</g>
<g>
	<g>
		<path class="st1" d="M235.7,36v7.7h-2.6V26.6h4.2c1.2,0,2.2,0.1,2.8,0.2c0.6,0.1,1.1,0.4,1.5,0.7c0.5,0.4,1,0.9,1.3,1.6
			s0.5,1.4,0.5,2.2s-0.2,1.6-0.5,2.2s-0.7,1.2-1.3,1.6c-0.4,0.3-1,0.5-1.5,0.7s-1.5,0.2-2.8,0.2h-0.6H235.7z M235.9,33.8h0.7
			c1.5,0,2.6-0.2,3.1-0.5s0.8-0.9,0.8-1.8c0-0.9-0.3-1.6-0.8-1.9s-1.6-0.6-3-0.6h-0.7V33.8z"/>
		<path class="st1" d="M255.3,43.7h-2.5v-1.4c-0.5,0.6-1,1.1-1.6,1.4s-1.3,0.5-2.1,0.5c-1.6,0-2.8-0.5-3.7-1.6S244,40,244,38.2
			c0-1.8,0.5-3.2,1.4-4.3s2.1-1.6,3.6-1.6c0.9,0,1.7,0.2,2.3,0.6s1.1,0.9,1.4,1.6v-1.8h2.5V43.7z M252.8,38.1c0-1.1-0.3-2-0.8-2.7
			s-1.3-1-2.2-1s-1.7,0.3-2.3,1s-0.8,1.6-0.8,2.7c0,1.2,0.3,2.1,0.8,2.7c0.5,0.6,1.3,1,2.2,1c0.9,0,1.7-0.3,2.2-1
			S252.8,39.3,252.8,38.1z"/>
		<path class="st1" d="M258.8,43.7V32.6h2.4v1.8c0.5-0.8,1.1-1.3,1.8-1.7c0.7-0.4,1.5-0.5,2.5-0.5c0.8,0,1.5,0.1,2.1,0.4
			s1,0.7,1.4,1.2c0.2,0.3,0.3,0.7,0.4,1.1c0.1,0.4,0.1,1.1,0.1,2.1v6.7h-2.6V38c0-1.5-0.2-2.4-0.5-2.9s-1-0.7-1.9-0.7
			c-0.6,0-1.1,0.1-1.6,0.3c-0.5,0.2-0.8,0.5-1.1,0.9c-0.2,0.3-0.3,0.6-0.4,1c-0.1,0.4-0.1,1.1-0.1,2v5.1H258.8z"/>
		<path class="st1" d="M272.9,37h6.3v2.3h-6.3V37z"/>
		<path class="st1" d="M297,30.8c-0.8-0.7-1.6-1.2-2.5-1.5c-0.9-0.3-1.8-0.5-2.8-0.5c-1.9,0-3.4,0.6-4.6,1.8s-1.8,2.8-1.8,4.7
			c0,1.9,0.6,3.4,1.7,4.6c1.1,1.2,2.6,1.8,4.3,1.8c1,0,2-0.2,2.9-0.5c0.9-0.4,1.8-0.9,2.6-1.6v3.2c-0.8,0.5-1.6,0.9-2.4,1.2
			c-0.9,0.3-1.8,0.4-2.9,0.4c-1.3,0-2.5-0.2-3.6-0.6s-2.1-1.1-2.9-1.9c-0.8-0.8-1.5-1.8-1.9-2.9s-0.7-2.3-0.7-3.6s0.2-2.4,0.7-3.5
			s1.1-2.1,2-2.9c0.9-0.8,1.8-1.5,2.9-1.9s2.3-0.7,3.6-0.7c1,0,2,0.1,2.9,0.4c0.9,0.3,1.8,0.7,2.7,1.3L297,30.8z"/>
		<path class="st1" d="M310.7,43.7h-2.5v-1.4c-0.5,0.6-1,1.1-1.6,1.4s-1.3,0.5-2.1,0.5c-1.6,0-2.8-0.5-3.7-1.6s-1.4-2.5-1.4-4.4
			c0-1.8,0.5-3.2,1.4-4.3s2.1-1.6,3.6-1.6c0.9,0,1.7,0.2,2.3,0.6s1.1,0.9,1.4,1.6v-1.8h2.5V43.7z M308.3,38.1c0-1.1-0.3-2-0.8-2.7
			s-1.3-1-2.2-1s-1.7,0.3-2.3,1s-0.8,1.6-0.8,2.7c0,1.2,0.3,2.1,0.8,2.7c0.5,0.6,1.3,1,2.2,1c0.9,0,1.7-0.3,2.2-1
			S308.3,39.3,308.3,38.1z"/>
		<path class="st1" d="M314.3,43.7V32.6h2.4v1.8c0.5-0.8,1.1-1.3,1.8-1.7s1.5-0.5,2.5-0.5c0.8,0,1.5,0.1,2.1,0.4
			c0.6,0.3,1,0.7,1.4,1.2c0.2,0.3,0.3,0.7,0.4,1.1c0.1,0.4,0.1,1.1,0.1,2.1v6.7h-2.6V38c0-1.5-0.2-2.4-0.5-2.9s-1-0.7-1.9-0.7
			c-0.6,0-1.1,0.1-1.6,0.3s-0.8,0.5-1.1,0.9c-0.2,0.3-0.3,0.6-0.4,1s-0.1,1.1-0.1,2v5.1H314.3z"/>
		<path class="st1" d="M338.8,43.7h-2.5v-1.4c-0.5,0.6-1,1.1-1.6,1.4s-1.3,0.5-2.1,0.5c-1.6,0-2.8-0.5-3.7-1.6s-1.4-2.5-1.4-4.4
			c0-1.8,0.5-3.2,1.4-4.3s2.1-1.6,3.6-1.6c0.9,0,1.7,0.2,2.3,0.6s1.1,0.9,1.4,1.6v-1.8h2.5V43.7z M336.3,38.1c0-1.1-0.3-2-0.8-2.7
			s-1.3-1-2.2-1s-1.7,0.3-2.3,1s-0.8,1.6-0.8,2.7c0,1.2,0.3,2.1,0.8,2.7c0.5,0.6,1.3,1,2.2,1c0.9,0,1.7-0.3,2.2-1
			S336.3,39.3,336.3,38.1z"/>
		<path class="st1" d="M350.2,25.6h2.5v18.2h-2.5v-1.4c-0.5,0.6-1,1.1-1.6,1.4s-1.3,0.5-2.1,0.5c-1.6,0-2.8-0.5-3.7-1.6
			s-1.4-2.5-1.4-4.4c0-1.8,0.5-3.2,1.4-4.3s2.1-1.6,3.6-1.6c0.9,0,1.7,0.2,2.3,0.6s1.1,0.9,1.4,1.6V25.6z M350.3,38.1
			c0-1.1-0.3-2-0.8-2.7s-1.3-1-2.2-1s-1.7,0.3-2.3,1s-0.8,1.6-0.8,2.7c0,1.2,0.3,2.1,0.8,2.7c0.5,0.6,1.3,1,2.2,1
			c0.9,0,1.7-0.3,2.2-1S350.3,39.3,350.3,38.1z"/>
		<path class="st1" d="M356.1,27.8c0-0.4,0.2-0.8,0.5-1.1c0.3-0.3,0.7-0.5,1.1-0.5c0.5,0,0.8,0.2,1.1,0.5c0.3,0.3,0.5,0.7,0.5,1.1
			s-0.2,0.8-0.5,1.1s-0.7,0.5-1.1,0.5c-0.4,0-0.8-0.2-1.1-0.5S356.1,28.3,356.1,27.8z M356.4,43.7V32.6h2.5v11.1H356.4z"/>
		<path class="st1" d="M373,43.7h-2.5v-1.4c-0.5,0.6-1,1.1-1.6,1.4s-1.3,0.5-2.1,0.5c-1.6,0-2.8-0.5-3.7-1.6s-1.4-2.5-1.4-4.4
			c0-1.8,0.5-3.2,1.4-4.3s2.1-1.6,3.6-1.6c0.9,0,1.7,0.2,2.3,0.6s1.1,0.9,1.4,1.6v-1.8h2.5V43.7z M370.6,38.1c0-1.1-0.3-2-0.8-2.7
			s-1.3-1-2.2-1s-1.7,0.3-2.3,1s-0.8,1.6-0.8,2.7c0,1.2,0.3,2.1,0.8,2.7c0.5,0.6,1.3,1,2.2,1c0.9,0,1.7-0.3,2.2-1
			S370.6,39.3,370.6,38.1z"/>
		<path class="st1" d="M376.6,43.7V32.6h2.4v1.8c0.5-0.8,1.1-1.3,1.8-1.7s1.5-0.5,2.5-0.5c0.8,0,1.5,0.1,2.1,0.4
			c0.6,0.3,1,0.7,1.4,1.2c0.2,0.3,0.3,0.7,0.4,1.1c0.1,0.4,0.1,1.1,0.1,2.1v6.7h-2.6V38c0-1.5-0.2-2.4-0.5-2.9s-1-0.7-1.9-0.7
			c-0.6,0-1.1,0.1-1.6,0.3s-0.8,0.5-1.1,0.9c-0.2,0.3-0.3,0.6-0.4,1s-0.1,1.1-0.1,2v5.1H376.6z"/>
		<path class="st1" d="M242.6,63.7h6.8c0,0.1,0,0.3,0,0.5c0,0.6,0,0.9,0,1.1c0,2.4-0.7,4.3-2.1,5.6s-3.3,2-5.8,2
			c-1.4,0-2.7-0.2-3.8-0.6c-1.1-0.4-2.1-1-2.9-1.9c-0.8-0.8-1.4-1.8-1.9-2.9c-0.4-1.1-0.7-2.3-0.7-3.6c0-1.3,0.2-2.5,0.7-3.6
			s1.1-2.1,2-2.9c0.8-0.8,1.8-1.4,2.9-1.9c1.1-0.4,2.3-0.6,3.6-0.6c1.4,0,2.6,0.2,3.6,0.7s2,1.2,2.9,2.3l-2,1.5
			c-0.6-0.7-1.2-1.2-2-1.5s-1.5-0.5-2.4-0.5c-1.9,0-3.4,0.6-4.6,1.8c-1.2,1.2-1.8,2.7-1.8,4.6c0,1.9,0.6,3.5,1.8,4.7
			c1.2,1.2,2.7,1.8,4.6,1.8c1.6,0,2.8-0.4,3.8-1.1s1.4-1.8,1.4-3v-0.2h-4.1V63.7z"/>
		<path class="st1" d="M262.9,67.4H254c0.1,1,0.4,1.8,0.9,2.4s1.3,0.9,2.2,0.9c0.8,0,1.5-0.2,2.1-0.5s1-0.9,1.4-1.7l2.1,1.2
			c-0.6,1.1-1.4,1.9-2.3,2.5s-2,0.8-3.2,0.8c-1.8,0-3.2-0.5-4.3-1.6s-1.6-2.5-1.6-4.3c0-1.7,0.5-3.2,1.6-4.3s2.5-1.7,4.2-1.7
			c1.8,0,3.2,0.5,4.2,1.5s1.5,2.5,1.5,4.3V67.4z M260.2,65.6c-0.1-0.8-0.4-1.4-0.9-1.8c-0.5-0.4-1.2-0.6-2.1-0.6
			c-0.8,0-1.5,0.2-2,0.6c-0.5,0.4-0.9,1-1.1,1.8H260.2z"/>
		<path class="st1" d="M265.5,72.5V61.4h2.4v1.8c0.5-0.8,1.1-1.3,1.8-1.7s1.5-0.5,2.5-0.5c0.8,0,1.5,0.1,2.1,0.4
			c0.6,0.3,1,0.7,1.4,1.2c0.2,0.3,0.3,0.7,0.4,1.1c0.1,0.4,0.1,1.1,0.1,2.1v6.7h-2.6v-5.7c0-1.5-0.2-2.4-0.5-2.9
			c-0.4-0.5-1-0.7-1.9-0.7c-0.6,0-1.1,0.1-1.6,0.3s-0.8,0.5-1.1,0.9c-0.2,0.3-0.3,0.6-0.4,1c-0.1,0.4-0.1,1.1-0.1,2v5.1H265.5z"/>
		<path class="st1" d="M278.8,67c0-0.8,0.2-1.6,0.5-2.3c0.3-0.7,0.8-1.4,1.3-1.9c0.6-0.6,1.2-1,2-1.3s1.5-0.4,2.3-0.4
			c0.8,0,1.6,0.1,2.4,0.4s1.4,0.7,2,1.3c0.6,0.6,1,1.2,1.3,1.9s0.5,1.5,0.5,2.3c0,0.8-0.2,1.6-0.5,2.3c-0.3,0.7-0.7,1.4-1.3,1.9
			c-0.6,0.6-1.3,1-2,1.3s-1.5,0.5-2.3,0.5c-0.8,0-1.6-0.2-2.3-0.5s-1.4-0.7-2-1.3c-0.6-0.6-1-1.2-1.3-1.9S278.8,67.8,278.8,67z
			 M288.4,67c0-1-0.3-1.9-1-2.6c-0.7-0.7-1.5-1.1-2.4-1.1c-1,0-1.8,0.4-2.4,1.1c-0.7,0.7-1,1.6-1,2.6s0.3,1.9,1,2.6s1.5,1.1,2.4,1.1
			s1.8-0.4,2.4-1.1S288.4,68,288.4,67z"/>
		<path class="st1" d="M296.3,72.5h-2.5V61.4h2.4v1.8c0.5-0.8,1.1-1.3,1.7-1.7s1.4-0.5,2.3-0.5c0.9,0,1.6,0.2,2.2,0.5
			c0.6,0.4,1,0.9,1.3,1.7c0.6-0.8,1.2-1.3,1.9-1.7s1.4-0.5,2.3-0.5c0.7,0,1.4,0.1,1.9,0.4s1,0.7,1.3,1.2c0.1,0.2,0.2,0.5,0.3,0.9
			s0.1,0.8,0.1,1.4v0.9v6.7h-2.5v-5.7c0-1.5-0.2-2.5-0.5-2.9c-0.3-0.5-0.9-0.7-1.7-0.7c-1,0-1.7,0.3-2.1,1c-0.4,0.6-0.6,1.8-0.6,3.3
			v5.1h-2.6v-5.7c0-1.4-0.2-2.3-0.5-2.9c-0.3-0.5-0.9-0.8-1.7-0.8c-0.5,0-1,0.1-1.4,0.3s-0.7,0.5-1,0.9c-0.2,0.3-0.3,0.6-0.3,0.9
			s-0.1,1.1-0.1,2.1V72.5z"/>
		<path class="st1" d="M325.4,67.4h-8.9c0.1,1,0.4,1.8,0.9,2.4s1.3,0.9,2.2,0.9c0.8,0,1.5-0.2,2.1-0.5s1-0.9,1.4-1.7l2.1,1.2
			c-0.6,1.1-1.4,1.9-2.3,2.5c-0.9,0.5-2,0.8-3.2,0.8c-1.8,0-3.2-0.5-4.3-1.6s-1.6-2.5-1.6-4.3c0-1.7,0.5-3.2,1.6-4.3
			s2.5-1.7,4.2-1.7c1.8,0,3.2,0.5,4.2,1.5c1,1,1.5,2.5,1.5,4.3V67.4z M322.8,65.6c-0.1-0.8-0.4-1.4-0.9-1.8
			c-0.5-0.4-1.2-0.6-2.1-0.6c-0.8,0-1.5,0.2-2,0.6c-0.5,0.4-0.9,1-1.1,1.8H322.8z"/>
		<path class="st1" d="M335.5,72.5V55.4h2.8V70h6.2v2.5H335.5z"/>
		<path class="st1" d="M346.4,56.6c0-0.4,0.2-0.8,0.5-1.1c0.3-0.3,0.7-0.5,1.1-0.5c0.5,0,0.8,0.2,1.1,0.5c0.3,0.3,0.5,0.7,0.5,1.1
			s-0.2,0.8-0.5,1.1s-0.7,0.5-1.1,0.5c-0.4,0-0.8-0.2-1.1-0.5S346.4,57.1,346.4,56.6z M346.7,72.5V61.4h2.5v11.1H346.7z"/>
		<path class="st1" d="M355.5,54.4v8.9c0.3-0.7,0.8-1.2,1.4-1.6s1.4-0.6,2.3-0.6c1.5,0,2.7,0.5,3.6,1.6c0.9,1.1,1.4,2.5,1.4,4.3
			c0,1.9-0.5,3.3-1.4,4.4s-2.1,1.6-3.7,1.6c-0.8,0-1.5-0.2-2.1-0.5s-1.1-0.8-1.6-1.4v1.4h-2.5V54.4H355.5z M355.4,66.9
			c0,1.1,0.3,2,0.9,2.7s1.3,1,2.3,1c1,0,1.7-0.3,2.2-1c0.5-0.6,0.8-1.6,0.8-2.7c0-1.2-0.3-2.1-0.8-2.7c-0.6-0.7-1.3-1-2.3-1
			s-1.7,0.3-2.2,1C355.6,64.9,355.4,65.8,355.4,66.9z"/>
		<path class="st1" d="M369.4,63.2c0.3-0.7,0.6-1.3,1.1-1.6s1-0.5,1.7-0.5c0.4,0,0.7,0,1.1,0.1s0.7,0.2,1,0.4l-0.9,2.2
			c-0.2-0.2-0.5-0.3-0.7-0.3s-0.5-0.1-0.8-0.1c-0.8,0-1.4,0.3-1.8,1c-0.4,0.7-0.6,1.8-0.6,3.4v4.9h-2.5V61.4h2.5V63.2z"/>
		<path class="st1" d="M386.2,72.5h-2.5v-1.4c-0.5,0.6-1,1.1-1.6,1.4S380.7,73,380,73c-1.6,0-2.8-0.5-3.7-1.6s-1.4-2.5-1.4-4.4
			c0-1.8,0.5-3.2,1.4-4.3s2.1-1.6,3.6-1.6c0.9,0,1.7,0.2,2.3,0.6s1.1,0.9,1.4,1.6v-1.8h2.5V72.5z M383.7,66.9c0-1.1-0.3-2-0.8-2.7
			c-0.5-0.6-1.3-1-2.2-1s-1.7,0.3-2.3,1c-0.6,0.7-0.8,1.6-0.8,2.7c0,1.2,0.3,2.1,0.8,2.7c0.5,0.6,1.3,1,2.2,1c0.9,0,1.7-0.3,2.2-1
			S383.7,68.1,383.7,66.9z"/>
		<path class="st1" d="M392.2,63.2c0.3-0.7,0.6-1.3,1.1-1.6s1-0.5,1.7-0.5c0.4,0,0.7,0,1.1,0.1s0.7,0.2,1,0.4l-0.9,2.2
			c-0.2-0.2-0.5-0.3-0.7-0.3s-0.5-0.1-0.8-0.1c-0.8,0-1.4,0.3-1.8,1c-0.4,0.7-0.6,1.8-0.6,3.4v4.9h-2.5V61.4h2.5V63.2z"/>
		<path class="st1" d="M400.4,77.8h-2.6l3-6.2l-4.1-10.1h2.8l2,5.8c0.1,0.4,0.2,0.7,0.3,1.1s0.2,0.7,0.2,1.1c0.1-0.4,0.3-1,0.7-1.9
			l0.1-0.1l2.7-5.9h2.8L400.4,77.8z"/>
	</g>
	<g>
		<path class="st1" d="M233.1,120.8v-17.2h4.3c1.2,0,2.1,0.1,2.7,0.2c0.6,0.1,1.1,0.4,1.5,0.7c0.5,0.4,0.9,0.9,1.2,1.5
			s0.4,1.3,0.4,2.1c0,0.9-0.2,1.7-0.6,2.3s-1,1-1.8,1.3c1,0.2,1.8,0.6,2.4,1.4s0.9,1.7,0.9,2.9c0,0.7-0.1,1.4-0.4,2s-0.6,1.2-1,1.6
			c-0.5,0.5-1.1,0.8-1.7,1s-1.9,0.3-3.5,0.3H233.1z M235.8,110.9h1.1c1.3,0,2.3-0.2,2.8-0.5s0.8-1,0.8-1.8c0-0.9-0.3-1.6-0.8-2
			s-1.5-0.6-2.9-0.6h-1.1V110.9z M235.8,118.5h1c1,0,1.7,0,2.2-0.1s0.9-0.2,1.1-0.4c0.3-0.2,0.6-0.5,0.8-0.9
			c0.2-0.4,0.3-0.8,0.3-1.3c0-0.5-0.1-1-0.3-1.4c-0.2-0.4-0.6-0.7-1-0.9c-0.3-0.1-0.6-0.2-0.9-0.3s-0.8-0.1-1.4-0.1h-0.8h-1V118.5z"
			/>
		<path class="st1" d="M246.5,104.9c0-0.4,0.2-0.8,0.5-1.1c0.3-0.3,0.7-0.5,1.1-0.5c0.5,0,0.8,0.2,1.1,0.5c0.3,0.3,0.5,0.7,0.5,1.1
			s-0.2,0.8-0.5,1.1s-0.7,0.5-1.1,0.5c-0.4,0-0.8-0.2-1.1-0.5S246.5,105.4,246.5,104.9z M246.8,120.8v-11.1h2.5v11.1H246.8z"/>
		<path class="st1" d="M255.6,102.7v8.9c0.3-0.7,0.8-1.2,1.4-1.6c0.7-0.4,1.4-0.6,2.3-0.6c1.5,0,2.7,0.5,3.6,1.6s1.4,2.5,1.4,4.3
			c0,1.9-0.5,3.3-1.4,4.4s-2.1,1.6-3.7,1.6c-0.8,0-1.5-0.2-2.1-0.5c-0.6-0.3-1.1-0.8-1.6-1.4v1.4H253v-18.2H255.6z M255.5,115.2
			c0,1.1,0.3,2,0.9,2.7c0.6,0.7,1.3,1,2.3,1c1,0,1.7-0.3,2.2-1c0.5-0.6,0.8-1.6,0.8-2.7c0-1.2-0.3-2.1-0.8-2.7s-1.3-1-2.3-1
			c-1,0-1.7,0.3-2.2,1C255.8,113.2,255.5,114.1,255.5,115.2z"/>
		<path class="st1" d="M267.1,120.8v-18.2h2.5v18.2H267.1z"/>
		<path class="st1" d="M273.1,104.9c0-0.4,0.2-0.8,0.5-1.1c0.3-0.3,0.7-0.5,1.1-0.5c0.5,0,0.8,0.2,1.1,0.5c0.3,0.3,0.5,0.7,0.5,1.1
			s-0.2,0.8-0.5,1.1s-0.7,0.5-1.1,0.5c-0.4,0-0.8-0.2-1.1-0.5S273.1,105.4,273.1,104.9z M273.4,120.8v-11.1h2.5v11.1H273.4z"/>
		<path class="st1" d="M278.8,115.3c0-0.8,0.2-1.6,0.5-2.3s0.8-1.4,1.3-1.9c0.6-0.6,1.2-1,2-1.3s1.5-0.4,2.3-0.4
			c0.8,0,1.6,0.1,2.4,0.4s1.4,0.7,2,1.3c0.6,0.6,1,1.2,1.3,1.9s0.5,1.5,0.5,2.3c0,0.8-0.2,1.6-0.5,2.3c-0.3,0.7-0.7,1.4-1.3,1.9
			c-0.6,0.6-1.3,1-2,1.3s-1.5,0.5-2.3,0.5c-0.8,0-1.6-0.2-2.3-0.5s-1.4-0.7-2-1.3c-0.6-0.6-1-1.2-1.3-1.9S278.8,116.1,278.8,115.3z
			 M288.3,115.3c0-1-0.3-1.9-1-2.6c-0.7-0.7-1.5-1.1-2.4-1.1c-1,0-1.8,0.4-2.4,1.1s-1,1.6-1,2.6s0.3,1.9,1,2.6s1.5,1.1,2.4,1.1
			s1.8-0.4,2.4-1.1S288.3,116.3,288.3,115.3z"/>
		<path class="st1" d="M294.3,120.8v-8.9h-1.9v-2.2h1.9v-4.2h2.5v4.2h1.9v2.2h-1.9v8.9H294.3z"/>
		<path class="st1" d="M301,120.8v-18.2h2.4v8.9c0.5-0.8,1.1-1.3,1.8-1.7s1.5-0.5,2.5-0.5c0.8,0,1.5,0.1,2.1,0.4
			c0.6,0.3,1,0.7,1.4,1.2c0.2,0.3,0.3,0.7,0.4,1.1c0.1,0.4,0.1,1.1,0.1,2.1v6.7h-2.6v-5.7c0-1.5-0.2-2.4-0.5-2.9s-1-0.7-1.9-0.7
			c-0.6,0-1.1,0.1-1.6,0.3s-0.8,0.5-1.1,0.9c-0.2,0.3-0.3,0.6-0.4,1s-0.1,1.1-0.1,2v5.1H301z"/>
		<path class="st1" d="M325.8,115.7h-8.9c0.1,1,0.4,1.8,0.9,2.4s1.3,0.9,2.2,0.9c0.8,0,1.5-0.2,2.1-0.5s1-0.9,1.4-1.7l2.1,1.2
			c-0.6,1.1-1.4,1.9-2.3,2.5c-0.9,0.5-2,0.8-3.2,0.8c-1.8,0-3.2-0.5-4.3-1.6s-1.6-2.5-1.6-4.3c0-1.7,0.5-3.2,1.6-4.3
			s2.5-1.7,4.2-1.7c1.8,0,3.2,0.5,4.2,1.5c1,1,1.5,2.5,1.5,4.3V115.7z M321.7,108h-1.4l-3.4-3.2h2.6L321.7,108z M323.1,113.9
			c-0.1-0.8-0.4-1.4-0.9-1.8s-1.2-0.6-2.1-0.6c-0.8,0-1.5,0.2-2,0.6s-0.9,1-1.1,1.8H323.1z"/>
		<path class="st1" d="M338.9,126.1h-2.5v-6.7c-0.5,0.6-1,1.1-1.6,1.4s-1.3,0.5-2.1,0.5c-1.6,0-2.8-0.5-3.7-1.6s-1.4-2.5-1.4-4.4
			c0-1.8,0.5-3.2,1.4-4.3s2.1-1.6,3.6-1.6c0.9,0,1.7,0.2,2.3,0.6s1.1,0.9,1.4,1.6v-1.8h2.5V126.1z M336.4,115.2c0-1.1-0.3-2-0.8-2.7
			s-1.3-1-2.2-1s-1.7,0.3-2.3,1s-0.8,1.6-0.8,2.7c0,1.2,0.3,2.1,0.8,2.7c0.5,0.6,1.3,1,2.2,1c0.9,0,1.7-0.3,2.2-1
			C336.1,117.3,336.4,116.4,336.4,115.2z"/>
		<path class="st1" d="M344.8,109.7v6.3c0,1.1,0.2,1.9,0.7,2.3s1.2,0.7,2.2,0.7s1.7-0.2,2.2-0.7s0.7-1.2,0.7-2.3v-6.3h2.5v5.5
			c0,2.1-0.4,3.7-1.3,4.6c-0.9,1-2.2,1.4-4.1,1.4c-1.9,0-3.3-0.5-4.1-1.4s-1.3-2.5-1.3-4.6v-5.5H344.8z"/>
		<path class="st1" d="M367.2,115.7h-8.9c0.1,1,0.4,1.8,0.9,2.4s1.3,0.9,2.2,0.9c0.8,0,1.5-0.2,2.1-0.5s1-0.9,1.4-1.7l2.1,1.2
			c-0.6,1.1-1.4,1.9-2.3,2.5c-0.9,0.5-2,0.8-3.2,0.8c-1.8,0-3.2-0.5-4.3-1.6s-1.6-2.5-1.6-4.3c0-1.7,0.5-3.2,1.6-4.3
			s2.5-1.7,4.2-1.7c1.8,0,3.2,0.5,4.2,1.5c1,1,1.5,2.5,1.5,4.3V115.7z M364.6,113.9c-0.1-0.8-0.4-1.4-0.9-1.8s-1.2-0.6-2.1-0.6
			c-0.8,0-1.5,0.2-2,0.6s-0.9,1-1.1,1.8H364.6z"/>
		<path class="st1" d="M387.5,120.1c0,2.2-0.4,3.7-1.3,4.6c-0.9,0.9-2.3,1.3-4.4,1.3c-1.5,0-2.8-0.3-3.7-1s-1.4-1.5-1.4-2.6l2.7,0
			c0,0.5,0.3,0.8,0.7,1.1s1,0.4,1.7,0.4c1.1,0,1.9-0.2,2.3-0.7s0.7-1.3,0.7-2.4l0-1.5c-0.5,0.6-1,1.1-1.6,1.4s-1.3,0.5-2.1,0.5
			c-1.6,0-2.8-0.5-3.7-1.6s-1.4-2.5-1.4-4.4c0-1.8,0.5-3.2,1.4-4.3s2.1-1.6,3.6-1.6c0.9,0,1.7,0.2,2.3,0.6s1.1,0.9,1.4,1.6v-1.8h2.5
			V120.1z M385.1,115.2c0-1.1-0.3-2-0.8-2.7s-1.3-1-2.2-1s-1.7,0.3-2.3,1s-0.8,1.6-0.8,2.7c0,1.2,0.3,2.1,0.8,2.7
			c0.5,0.6,1.3,1,2.2,1c0.9,0,1.7-0.3,2.2-1S385.1,116.4,385.1,115.2z"/>
		<path class="st1" d="M401.8,115.7h-8.9c0.1,1,0.4,1.8,0.9,2.4s1.3,0.9,2.2,0.9c0.8,0,1.5-0.2,2.1-0.5s1-0.9,1.4-1.7l2.1,1.2
			c-0.6,1.1-1.4,1.9-2.3,2.5c-0.9,0.5-2,0.8-3.2,0.8c-1.8,0-3.2-0.5-4.3-1.6s-1.6-2.5-1.6-4.3c0-1.7,0.5-3.2,1.6-4.3
			s2.5-1.7,4.2-1.7c1.8,0,3.2,0.5,4.2,1.5c1,1,1.5,2.5,1.5,4.3V115.7z M399.1,113.9c-0.1-0.8-0.4-1.4-0.9-1.8s-1.2-0.6-2.1-0.6
			c-0.8,0-1.5,0.2-2,0.6s-0.9,1-1.1,1.8H399.1z M394.4,108l2.2-3.2h2.6l-3.4,3.2H394.4z"/>
		<path class="st1" d="M404.4,120.8v-11.1h2.4v1.8c0.5-0.8,1.1-1.3,1.8-1.7s1.5-0.5,2.5-0.5c0.8,0,1.5,0.1,2.1,0.4
			c0.6,0.3,1,0.7,1.4,1.2c0.2,0.3,0.3,0.7,0.4,1.1c0.1,0.4,0.1,1.1,0.1,2.1v6.7h-2.6v-5.7c0-1.5-0.2-2.4-0.5-2.9s-1-0.7-1.9-0.7
			c-0.6,0-1.1,0.1-1.6,0.3s-0.8,0.5-1.1,0.9c-0.2,0.3-0.3,0.6-0.4,1s-0.1,1.1-0.1,2v5.1H404.4z"/>
		<path class="st1" d="M417.7,115.3c0-0.8,0.2-1.6,0.5-2.3s0.8-1.4,1.3-1.9c0.6-0.6,1.2-1,2-1.3s1.5-0.4,2.3-0.4
			c0.8,0,1.6,0.1,2.4,0.4s1.4,0.7,2,1.3c0.6,0.6,1,1.2,1.3,1.9s0.5,1.5,0.5,2.3c0,0.8-0.2,1.6-0.5,2.3c-0.3,0.7-0.7,1.4-1.3,1.9
			c-0.6,0.6-1.3,1-2,1.3s-1.5,0.5-2.3,0.5c-0.8,0-1.6-0.2-2.3-0.5s-1.4-0.7-2-1.3c-0.6-0.6-1-1.2-1.3-1.9S417.7,116.1,417.7,115.3z
			 M427.2,115.3c0-1-0.3-1.9-1-2.6c-0.7-0.7-1.5-1.1-2.4-1.1c-1,0-1.8,0.4-2.4,1.1s-1,1.6-1,2.6s0.3,1.9,1,2.6s1.5,1.1,2.4,1.1
			s1.8-0.4,2.4-1.1S427.2,116.3,427.2,115.3z"/>
		<path class="st1" d="M435.2,120.8h-2.5v-11.1h2.4v1.8c0.5-0.8,1.1-1.3,1.7-1.7s1.4-0.5,2.3-0.5c0.9,0,1.6,0.2,2.2,0.5
			c0.6,0.4,1,0.9,1.3,1.7c0.6-0.8,1.2-1.3,1.9-1.7s1.4-0.5,2.3-0.5c0.7,0,1.4,0.1,1.9,0.4s1,0.7,1.3,1.2c0.1,0.2,0.2,0.5,0.3,0.9
			s0.1,0.8,0.1,1.4v0.9v6.7h-2.5v-5.7c0-1.5-0.2-2.5-0.5-2.9s-0.9-0.7-1.7-0.7c-1,0-1.7,0.3-2.1,1c-0.4,0.6-0.6,1.8-0.6,3.3v5.1
			h-2.6v-5.7c0-1.4-0.2-2.3-0.5-2.9s-0.9-0.8-1.7-0.8c-0.5,0-1,0.1-1.4,0.3s-0.7,0.5-1,0.9c-0.2,0.3-0.3,0.6-0.3,0.9
			s-0.1,1.1-0.1,2.1V120.8z"/>
		<path class="st1" d="M453.4,104.9c0-0.4,0.2-0.8,0.5-1.1c0.3-0.3,0.7-0.5,1.1-0.5c0.5,0,0.8,0.2,1.1,0.5c0.3,0.3,0.5,0.7,0.5,1.1
			s-0.2,0.8-0.5,1.1s-0.7,0.5-1.1,0.5c-0.4,0-0.8-0.2-1.1-0.5S453.4,105.4,453.4,104.9z M453.7,120.8v-11.1h2.5v11.1H453.7z"/>
		<path class="st1" d="M470.4,126.1h-2.5v-6.7c-0.5,0.6-1,1.1-1.6,1.4s-1.3,0.5-2.1,0.5c-1.6,0-2.8-0.5-3.7-1.6s-1.4-2.5-1.4-4.4
			c0-1.8,0.5-3.2,1.4-4.3s2.1-1.6,3.6-1.6c0.9,0,1.7,0.2,2.3,0.6s1.1,0.9,1.4,1.6v-1.8h2.5V126.1z M467.9,115.2c0-1.1-0.3-2-0.8-2.7
			s-1.3-1-2.2-1s-1.7,0.3-2.3,1s-0.8,1.6-0.8,2.7c0,1.2,0.3,2.1,0.8,2.7c0.5,0.6,1.3,1,2.2,1c0.9,0,1.7-0.3,2.2-1
			C467.6,117.3,467.9,116.4,467.9,115.2z"/>
		<path class="st1" d="M476.3,109.7v6.3c0,1.1,0.2,1.9,0.7,2.3s1.2,0.7,2.2,0.7s1.7-0.2,2.2-0.7s0.7-1.2,0.7-2.3v-6.3h2.5v5.5
			c0,2.1-0.4,3.7-1.3,4.6c-0.9,1-2.2,1.4-4.1,1.4c-1.9,0-3.3-0.5-4.1-1.4s-1.3-2.5-1.3-4.6v-5.5H476.3z"/>
		<path class="st1" d="M498.7,115.7h-8.9c0.1,1,0.4,1.8,0.9,2.4s1.3,0.9,2.2,0.9c0.8,0,1.5-0.2,2.1-0.5s1-0.9,1.4-1.7l2.1,1.2
			c-0.6,1.1-1.4,1.9-2.3,2.5c-0.9,0.5-2,0.8-3.2,0.8c-1.8,0-3.2-0.5-4.3-1.6s-1.6-2.5-1.6-4.3c0-1.7,0.5-3.2,1.6-4.3
			s2.5-1.7,4.2-1.7c1.8,0,3.2,0.5,4.2,1.5c1,1,1.5,2.5,1.5,4.3V115.7z M496,113.9c-0.1-0.8-0.4-1.4-0.9-1.8s-1.2-0.6-2.1-0.6
			c-0.8,0-1.5,0.2-2,0.6s-0.9,1-1.1,1.8H496z"/>
		<path class="st1" d="M232.9,154.9v-16.3h2.5v1.8c0.3-0.7,0.8-1.2,1.4-1.6c0.7-0.4,1.4-0.6,2.3-0.6c1.5,0,2.7,0.5,3.6,1.6
			s1.4,2.5,1.4,4.3c0,1.9-0.5,3.3-1.4,4.4s-2.1,1.6-3.7,1.6c-0.8,0-1.5-0.2-2.1-0.5c-0.6-0.3-1.1-0.8-1.6-1.4v6.7H232.9z M235.4,144
			c0,1.1,0.3,2.1,0.9,2.8c0.6,0.7,1.3,1,2.3,1c1,0,1.7-0.3,2.2-1c0.5-0.6,0.8-1.6,0.8-2.7c0-1.2-0.3-2.1-0.8-2.7s-1.3-1-2.3-1
			c-1,0-1.7,0.3-2.2,1S235.4,142.9,235.4,144z"/>
		<path class="st1" d="M257.3,149.6h-2.5v-1.4c-0.5,0.6-1,1.1-1.6,1.4s-1.3,0.5-2.1,0.5c-1.6,0-2.8-0.5-3.7-1.6s-1.4-2.5-1.4-4.4
			c0-1.8,0.5-3.2,1.4-4.3s2.1-1.6,3.6-1.6c0.9,0,1.7,0.2,2.3,0.6s1.1,0.9,1.4,1.6v-1.8h2.5V149.6z M254.9,144c0-1.1-0.3-2-0.8-2.7
			s-1.3-1-2.2-1s-1.7,0.3-2.3,1s-0.8,1.6-0.8,2.7c0,1.2,0.3,2.1,0.8,2.7c0.5,0.6,1.3,1,2.2,1c0.9,0,1.7-0.3,2.2-1
			S254.9,145.2,254.9,144z"/>
		<path class="st1" d="M260.8,149.6v-11.1h2.4v1.8c0.5-0.8,1.1-1.3,1.8-1.7c0.7-0.4,1.5-0.5,2.5-0.5c0.8,0,1.5,0.1,2.1,0.4
			c0.6,0.3,1,0.7,1.4,1.2c0.2,0.3,0.3,0.7,0.4,1.1c0.1,0.4,0.1,1.1,0.1,2.1v6.7H269v-5.7c0-1.5-0.2-2.4-0.5-2.9s-1-0.7-1.9-0.7
			c-0.6,0-1.1,0.1-1.6,0.3c-0.5,0.2-0.8,0.5-1.1,0.9c-0.2,0.3-0.3,0.6-0.4,1c-0.1,0.4-0.1,1.1-0.1,2v5.1H260.8z"/>
		<path class="st1" d="M283.2,141.7c-0.4-0.4-0.8-0.8-1.4-1s-1.1-0.3-1.7-0.3c-1,0-1.9,0.3-2.5,1s-0.9,1.6-0.9,2.7
			c0,1.2,0.3,2.1,0.9,2.7s1.5,1,2.6,1c0.6,0,1.2-0.1,1.7-0.3s0.9-0.6,1.3-1v2.9c-0.5,0.3-1,0.5-1.5,0.6s-1.1,0.2-1.7,0.2
			c-1.7,0-3.2-0.6-4.3-1.7s-1.6-2.5-1.6-4.3c0-1.8,0.6-3.2,1.7-4.3s2.6-1.6,4.5-1.6c0.6,0,1.1,0.1,1.6,0.2s0.9,0.3,1.4,0.5V141.7z"
			/>
		<path class="st1" d="M296.3,149.6h-2.5v-1.4c-0.5,0.6-1,1.1-1.6,1.4s-1.3,0.5-2.1,0.5c-1.6,0-2.8-0.5-3.7-1.6s-1.4-2.5-1.4-4.4
			c0-1.8,0.5-3.2,1.4-4.3s2.1-1.6,3.6-1.6c0.9,0,1.7,0.2,2.3,0.6s1.1,0.9,1.4,1.6v-1.8h2.5V149.6z M293.8,144c0-1.1-0.3-2-0.8-2.7
			s-1.3-1-2.2-1s-1.7,0.3-2.3,1s-0.8,1.6-0.8,2.7c0,1.2,0.3,2.1,0.8,2.7c0.5,0.6,1.3,1,2.2,1c0.9,0,1.7-0.3,2.2-1
			S293.8,145.2,293.8,144z"/>
		<path class="st1" d="M299.8,149.6v-11.1h2.4v1.8c0.5-0.8,1.1-1.3,1.8-1.7s1.5-0.5,2.5-0.5c0.8,0,1.5,0.1,2.1,0.4
			c0.6,0.3,1,0.7,1.4,1.2c0.2,0.3,0.3,0.7,0.4,1.1c0.1,0.4,0.1,1.1,0.1,2.1v6.7H308v-5.7c0-1.5-0.2-2.4-0.5-2.9s-1-0.7-1.9-0.7
			c-0.6,0-1.1,0.1-1.6,0.3s-0.8,0.5-1.1,0.9c-0.2,0.3-0.3,0.6-0.4,1s-0.1,1.1-0.1,2v5.1H299.8z"/>
		<path class="st1" d="M324.4,149.6h-2.5v-1.4c-0.5,0.6-1,1.1-1.6,1.4s-1.3,0.5-2.1,0.5c-1.6,0-2.8-0.5-3.7-1.6s-1.4-2.5-1.4-4.4
			c0-1.8,0.5-3.2,1.4-4.3s2.1-1.6,3.6-1.6c0.9,0,1.7,0.2,2.3,0.6s1.1,0.9,1.4,1.6v-1.8h2.5V149.6z M321.9,144c0-1.1-0.3-2-0.8-2.7
			s-1.3-1-2.2-1s-1.7,0.3-2.3,1s-0.8,1.6-0.8,2.7c0,1.2,0.3,2.1,0.8,2.7c0.5,0.6,1.3,1,2.2,1c0.9,0,1.7-0.3,2.2-1
			S321.9,145.2,321.9,144z"/>
		<path class="st1" d="M335.8,131.5h2.5v18.2h-2.5v-1.4c-0.5,0.6-1,1.1-1.6,1.4s-1.3,0.5-2.1,0.5c-1.6,0-2.8-0.5-3.7-1.6
			s-1.4-2.5-1.4-4.4c0-1.8,0.5-3.2,1.4-4.3s2.1-1.6,3.6-1.6c0.9,0,1.7,0.2,2.3,0.6s1.1,0.9,1.4,1.6V131.5z M335.9,144
			c0-1.1-0.3-2-0.8-2.7s-1.3-1-2.2-1s-1.7,0.3-2.3,1s-0.8,1.6-0.8,2.7c0,1.2,0.3,2.1,0.8,2.7c0.5,0.6,1.3,1,2.2,1
			c0.9,0,1.7-0.3,2.2-1S335.9,145.2,335.9,144z"/>
		<path class="st1" d="M341.6,133.7c0-0.4,0.2-0.8,0.5-1.1c0.3-0.3,0.7-0.5,1.1-0.5c0.5,0,0.8,0.2,1.1,0.5c0.3,0.3,0.5,0.7,0.5,1.1
			s-0.2,0.8-0.5,1.1s-0.7,0.5-1.1,0.5c-0.4,0-0.8-0.2-1.1-0.5S341.6,134.2,341.6,133.7z M342,149.6v-11.1h2.5v11.1H342z"/>
		<path class="st1" d="M358.9,144.5H350c0.1,1,0.4,1.8,0.9,2.4s1.3,0.9,2.2,0.9c0.8,0,1.5-0.2,2.1-0.5s1-0.9,1.4-1.7l2.1,1.2
			c-0.6,1.1-1.4,1.9-2.3,2.5c-0.9,0.5-2,0.8-3.2,0.8c-1.8,0-3.2-0.5-4.3-1.6s-1.6-2.5-1.6-4.3c0-1.7,0.5-3.2,1.6-4.3
			s2.5-1.7,4.2-1.7c1.8,0,3.2,0.5,4.2,1.5c1,1,1.5,2.5,1.5,4.3V144.5z M356.2,142.7c-0.1-0.8-0.4-1.4-0.9-1.8s-1.2-0.6-2.1-0.6
			c-0.8,0-1.5,0.2-2,0.6s-0.9,1-1.1,1.8H356.2z"/>
		<path class="st1" d="M361.5,149.6v-11.1h2.4v1.8c0.5-0.8,1.1-1.3,1.8-1.7s1.5-0.5,2.5-0.5c0.8,0,1.5,0.1,2.1,0.4
			c0.6,0.3,1,0.7,1.4,1.2c0.2,0.3,0.3,0.7,0.4,1.1c0.1,0.4,0.1,1.1,0.1,2.1v6.7h-2.6v-5.7c0-1.5-0.2-2.4-0.5-2.9s-1-0.7-1.9-0.7
			c-0.6,0-1.1,0.1-1.6,0.3s-0.8,0.5-1.1,0.9c-0.2,0.3-0.3,0.6-0.4,1s-0.1,1.1-0.1,2v5.1H361.5z"/>
		<path class="st1" d="M375.6,149.6v-11.1h2.4v1.8c0.5-0.8,1.1-1.3,1.8-1.7s1.5-0.5,2.5-0.5c0.8,0,1.5,0.1,2.1,0.4
			c0.6,0.3,1,0.7,1.4,1.2c0.2,0.3,0.3,0.7,0.4,1.1c0.1,0.4,0.1,1.1,0.1,2.1v6.7h-2.6v-5.7c0-1.5-0.2-2.4-0.5-2.9s-1-0.7-1.9-0.7
			c-0.6,0-1.1,0.1-1.6,0.3s-0.8,0.5-1.1,0.9c-0.2,0.3-0.3,0.6-0.4,1s-0.1,1.1-0.1,2v5.1H375.6z"/>
		<path class="st1" d="M400.4,144.5h-8.9c0.1,1,0.4,1.8,0.9,2.4s1.3,0.9,2.2,0.9c0.8,0,1.5-0.2,2.1-0.5s1-0.9,1.4-1.7l2.1,1.2
			c-0.6,1.1-1.4,1.9-2.3,2.5c-0.9,0.5-2,0.8-3.2,0.8c-1.8,0-3.2-0.5-4.3-1.6s-1.6-2.5-1.6-4.3c0-1.7,0.5-3.2,1.6-4.3
			s2.5-1.7,4.2-1.7c1.8,0,3.2,0.5,4.2,1.5c1,1,1.5,2.5,1.5,4.3V144.5z M397.8,142.7c-0.1-0.8-0.4-1.4-0.9-1.8s-1.2-0.6-2.1-0.6
			c-0.8,0-1.5,0.2-2,0.6s-0.9,1-1.1,1.8H397.8z"/>
	</g>
	<line class="st3" x1="198.8" y1="5.8" x2="198.8" y2="176.2"/>
</g>
</svg>